<?xml version="1.0" encoding="UTF-8"?>
<svg id="Capa_2" data-name="Capa 2" xmlns="http://www.w3.org/2000/svg" viewBox="0 0 20.17 30">
  <g id="Capa_1-2" data-name="Capa 1">
    <path d="m20.17,28.72c0,.79-.34,1.28-1.13,1.28h-9.29c-.79,0-1.13-.49-1.13-1.39,0-.79.34-1.24,1.13-1.24h1.99c.79,0,1.13-.34,1.13-1.13V7.41c0-.79-.34-1.13-1.13-1.13h-1.99c-.11,0-.2,0-.29-.02-.61-.09-.84-.48-.84-1.07v-.37c0-.9-1.2-1.96-2.6-1.96-1.32,0-2.44.83-2.44,2.33,0,3.2,8.51,2.9,8.51,9.03,0,3.16-3.05,5.01-5.84,5.01-2.94,0-6.25-1.81-6.25-5.68v-.19c0-.79.34-1.13,1.13-1.17h.6c.83,0,1.13.41,1.13,1.09v.37c0,1.65,1.88,2.75,3.27,2.75,1.32,0,3.05-.68,3.05-2.18-.01-3.65-8.74-3.54-8.74-8.84C.44,1.99,2.96,0,6.12,0c2.51,0,4.63,1.32,5.2,3.65h3.42c.79,0,1.13.49,1.13,1.39v21.19c0,.79.34,1.13,1.13,1.13h2.03c.79,0,1.13.45,1.13,1.35h.01Z"/>
  </g>
</svg>