<svg xmlns="http://www.w3.org/2000/svg" xmlns:xlink="http://www.w3.org/1999/xlink" id="Capa_2" data-name="Capa 2" viewBox="0 0 1917.85 715.04"><defs><linearGradient id="Degradado_sin_nombre_25" x1="1371.42" x2="1608.94" y1="48.55" y2="48.55" data-name="Degradado sin nombre 25" gradientUnits="userSpaceOnUse"><stop offset="0" stop-color="#242424" stop-opacity="0"/><stop offset=".41" stop-color="#232323" stop-opacity=".11"/><stop offset=".72" stop-color="#202020" stop-opacity=".44"/><stop offset="1" stop-color="#1d1d1b"/></linearGradient><linearGradient id="Degradado_sin_nombre_24" x1="230.99" x2="446.13" y1="48.55" y2="48.55" data-name="Degradado sin nombre 24" gradientUnits="userSpaceOnUse"><stop offset="0" stop-color="#242424"/><stop offset=".37" stop-color="#232323" stop-opacity=".91"/><stop offset=".66" stop-color="#212120" stop-opacity=".65"/><stop offset=".92" stop-color="#1e1e1c" stop-opacity=".19"/><stop offset="1" stop-color="#1d1d1b" stop-opacity="0"/></linearGradient><linearGradient xlink:href="#Degradado_sin_nombre_24" id="Degradado_sin_nombre_24-2" x1="196.93" y1="663.23" y2="663.23" data-name="Degradado sin nombre 24"/><linearGradient xlink:href="#Degradado_sin_nombre_25" id="Degradado_sin_nombre_25-2" x1="1390.72" x2="1640.17" y1="666.49" y2="666.49" data-name="Degradado sin nombre 25"/><style>.cls-2{fill:#fff; opacity:.5}.cls-4{fill:none;stroke:#fff;stroke-width:2.43px; opacity:.5}.cls-10{fill:#1d1d1b;}</style></defs><g id="Capa_1-2" data-name="Capa 1"><path d="M1917.85 96.1v1h-129.76c0-.33-.02-.67-.04-1h129.8Z" class="cls-10"/><path d="M1687.42 96.1c-.02.33-.04.67-.04 1h-64.85c-18.48 0-36.62-6.33-51.09-17.83L1471.71 0h2.22l97.26 77.71c14.85 11.86 33.49 18.39 52.5 18.39h63.73Z" style="fill:url(#Degradado_sin_nombre_25)"/><g id="tailwind" class='animate-orbit'><path d="M1788.11 98.1c0-.33 0-.67-.02-1 0-.33-.02-.67-.04-1-.01-.33-.03-.67-.06-1-1.83-26.13-23.67-46.83-50.25-46.83s-48.43 20.7-50.26 46.83c-.03.33-.05.67-.06 1-.02.33-.04.67-.04 1-.02.33-.02.67-.02 1-.01.19-.01.37-.01.56 0 27.79 22.6 50.39 50.39 50.39s50.38-22.6 50.38-50.39c0-.19 0-.37-.01-.56Zm-50.37 50.17c-27.36 0-49.62-22.25-49.62-49.61 0-.19 0-.37.01-.56 0-.33 0-.67.02-1 0-.33.02-.67.03-1 .02-.33.04-.67.07-1 1.83-25.7 23.33-46.05 49.49-46.05s47.65 20.35 49.49 46.05l.06 1 .03 1c.02.33.02.67.02 1 .01.19.01.37.01.56 0 27.36-22.26 49.61-49.61 49.61Z" class="cls-10 neon"/><path d="M1737.74 82.77c-7.07 0-11.48 3.53-13.25 10.6 2.65-3.53 5.74-4.86 9.27-3.97 2.02.5 3.46 1.97 5.05 3.58 2.6 2.64 5.61 5.69 12.17 5.69 7.07 0 11.48-3.53 13.25-10.6-2.65 3.53-5.74 4.86-9.27 3.97-2.02-.5-3.46-1.97-5.05-3.58-2.6-2.64-5.61-5.69-12.17-5.69m-13.25 15.9c-7.07 0-11.48 3.53-13.25 10.6 2.65-3.53 5.74-4.86 9.27-3.97 2.02.5 3.46 1.97 5.05 3.58 2.6 2.64 5.61 5.69 12.17 5.69 7.07 0 11.48-3.53 13.25-10.6-2.65 3.53-5.74 4.86-9.27 3.97-2.02-.5-3.46-1.97-5.05-3.58-2.6-2.64-5.6-5.69-12.17-5.69" class="cls-2"/></g><path d="M446.13 0 346.4 79.27c-14.46 11.5-32.61 17.83-51.09 17.83h-64.32v-1h63.17c19 0 37.65-6.53 52.49-18.39L443.92 0h2.21Z" style="fill:url(#Degradado_sin_nombre_24)"/><path d="M129.22 96.61c0 .16 0 .33.01.49H0v-1h129.23c-.01.17-.01.34-.01.51Z" class="cls-10"/><g id="astro" class='animate-orbit'>
<path d="M230.99 96.85c0-.34 0-.67-.02-1-.79-27.37-23.31-49.38-50.86-49.38s-50.07 22.01-50.86 49.38c-.02.33-.02.66-.02 1-.01.17-.01.34-.01.51 0 .16 0 .33.01.49 0 .34 0 .67.02 1 .78 27.37 23.3 49.4 50.86 49.4s50.08-22.03 50.86-49.4c.02-.33.02-.66.02-1v-1Zm-1.78 1c0 .33 0 .67-.02 1-.78 26.39-22.5 47.62-49.08 47.62s-48.3-21.23-49.08-47.62c-.02-.33-.02-.67-.02-1-.01-.16-.01-.33-.01-.49 0-.17 0-.34.01-.51 0-.33 0-.67.02-1 .79-26.38 22.5-47.6 49.08-47.6s48.29 21.22 49.08 47.6c.02.33.02.67.02 1 .01.17.01.34.01.51 0 .16 0 .33-.01.49Z" class="cls-10 neon"/>
<path d="M172.59 116.5c-2.45-2.25-3.17-6.97-2.14-10.39 1.77 2.16 4.22 2.84 6.76 3.23 3.92.6 7.77.37 11.42-1.43.42-.21.8-.48 1.26-.76.34.99.43 2 .31 3.02-.29 2.49-1.53 4.41-3.49 5.87-.79.58-1.62 1.1-2.43 1.65-2.49 1.69-3.17 3.67-2.23 6.56l.09.31a6.54 6.54 0 0 1-2.91-2.5c-.75-1.15-1.1-2.43-1.12-3.81 0-.67 0-1.35-.1-2.01-.22-1.62-.98-2.34-2.4-2.38-1.46-.04-2.62.86-2.93 2.29-.02.11-.06.22-.09.35ZM158.61 105.54s7.26-3.55 14.53-3.55l5.49-17.04c.21-.82.81-1.38 1.48-1.38s1.28.56 1.48 1.38l5.49 17.04c8.62 0 14.53 3.55 14.53 3.55l-12.35-33.76c-.35-1-.95-1.64-1.76-1.64h-14.79c-.81 0-1.38.64-1.76 1.64-.03.07-12.35 33.76-12.35 33.76" class="cls-2"/></g><path d="M97.75 614.68c-.02.33-.02.67-.02 1H0v-1h97.75Z" class="cls-10"/><path d="M446.13 711.78h-2.21l-97.27-77.7c-14.84-11.87-33.49-18.4-52.49-18.4h-97.21c0-.33 0-.67-.02-1h98.38c18.48 0 36.63 6.33 51.09 17.83l99.73 79.27Z" style="fill:url(#Degradado_sin_nombre_24-2)"/><g id="react" class='animate-orbit'>
<path d="M197.71 614.68c-.52-27.32-22.92-49.38-50.37-49.38s-49.85 22.06-50.37 49.38c-.02.33-.02.67-.02 1 0 27.79 22.6 50.39 50.39 50.39s50.39-22.6 50.39-50.39c0-.33 0-.67-.02-1Zm-50.37 50.62c-27.36 0-49.61-22.26-49.61-49.62 0-.33 0-.67.02-1 .52-26.89 22.56-48.61 49.59-48.61s49.07 21.72 49.59 48.61c.02.33.02.67.02 1 0 27.36-22.26 49.62-49.61 49.62Z" class='cls-10 neon'/><path d="M147.34 619.97c2.37 0 4.29-1.92 4.29-4.29s-1.92-4.29-4.29-4.29-4.29 1.92-4.29 4.29 1.92 4.29 4.29 4.29Z" class="cls-2"/><path d="M147.34 624.47c12.7 0 23-3.93 23-8.78s-10.3-8.78-23-8.78-23 3.93-23 8.78 10.3 8.78 23 8.78Z" class="cls-4"/><path d="M139.73 620.08c6.35 11 14.91 17.95 19.11 15.53 4.2-2.43 2.46-13.31-3.89-24.31-6.35-11-14.91-17.95-19.11-15.53-4.2 2.43-2.46 13.31 3.89 24.31Z" class="cls-4"/><path d="M139.73 611.29c-6.35 11-8.1 21.88-3.89 24.31 4.2 2.42 12.75-4.53 19.1-15.53 6.35-11 8.1-21.88 3.89-24.31-4.2-2.43-12.75 4.53-19.1 15.53Z" class="cls-4"/></g><path d="M1721.17 617.94c-.02.33-.03.67-.03 1h-97.45c-19 0-37.65 6.53-52.5 18.4l-97.26 77.7h-2.21l99.73-79.27c14.46-11.5 32.61-17.83 51.09-17.83h98.63Z" style="fill:url(#Degradado_sin_nombre_25-2)"/><path d="M1917.85 617.94v1h-97.51c0-.33-.01-.67-.03-1h97.54Z" class="cls-10"/><g id="figma" class='animate-orbit'>
<path d="M1821.12 618.94c0-.33-.01-.67-.03-1-.94-26.95-23.17-48.59-50.35-48.59s-49.41 21.64-50.35 48.59c-.02.33-.03.67-.03 1v.8c0 27.78 22.61 50.39 50.39 50.39s50.39-22.61 50.39-50.39c0-.27 0-.53-.01-.8Zm-50.38 50.41c-27.36 0-49.61-22.25-49.61-49.61 0-.27 0-.53.01-.8 0-.33.01-.67.03-1 .94-26.53 22.81-47.81 49.57-47.81s48.63 21.28 49.57 47.81c.02.33.03.67.03 1 .01.27.01.53.01.8 0 27.36-22.25 49.61-49.61 49.61Z" class="cls-10 neon"/><path d="M1761.74 646.74a9 9 0 0 0 9-9v-9h-9a9 9 0 0 0 0 18M1752.74 619.74a9 9 0 0 1 9-9h9v18h-9a9 9 0 0 1-9-9M1752.74 601.74a9 9 0 0 1 9-9h9v18h-9a9 9 0 0 1-9-9M1770.74 592.74h9a9 9 0 0 1 0 18h-9v-18Z" class="cls-2"/><path d="M1788.74 619.74a9 9 0 1 1-18.001-.001 9 9 0 0 1 18.001.001" class="cls-2"/></g></g></svg>